<svg preserveAspectRatio="none" width="100%" height="100%" overflow="visible" style="display: block;" viewBox="0 0 40 40" fill="none" xmlns="http://www.w3.org/2000/svg">
<g id="Group 2">
<circle id="Ellipse 2" cx="20" cy="20" r="19.5" stroke="var(--stroke-0, black)" stroke-opacity="0.2"/>
<path id="Vector" d="M25.6838 13.3269C24.9476 12.5933 24.0721 12.0101 23.1072 11.6109C22.1423 11.2116 21.1071 11.004 20.0607 11H20C17.8782 11 15.8434 11.8316 14.3431 13.3118C12.8429 14.792 12 16.7995 12 18.8929V23.1429C12 23.6259 12.1945 24.0892 12.5407 24.4308C12.8869 24.7724 13.3565 24.9643 13.8461 24.9643H15.0769C15.5665 24.9643 16.0361 24.7724 16.3823 24.4308C16.7286 24.0892 16.9231 23.6259 16.9231 23.1429V20.1071C16.9231 19.6241 16.7286 19.1608 16.3823 18.8192C16.0361 18.4776 15.5665 18.2857 15.0769 18.2857H13.2585C13.3771 17.0198 13.8591 15.8134 14.6479 14.8081C15.4366 13.8027 16.4995 13.04 17.7119 12.6094C18.9243 12.1787 20.236 12.0979 21.4933 12.3765C22.7506 12.655 23.9014 13.2814 24.8107 14.1822C25.9222 15.2844 26.6058 16.7368 26.7423 18.2857H24.923C24.4334 18.2857 23.9638 18.4776 23.6176 18.8192C23.2714 19.1608 23.0769 19.6241 23.0769 20.1071V23.1429C23.0769 23.6259 23.2714 24.0892 23.6176 24.4308C23.9638 24.7724 24.4334 24.9643 24.923 24.9643H26.7692C26.7692 25.4474 26.5747 25.9106 26.2285 26.2522C25.8822 26.5938 25.4127 26.7857 24.923 26.7857H20.6154C20.4521 26.7857 20.2956 26.8497 20.1802 26.9635C20.0648 27.0774 20 27.2318 20 27.3929C20 27.5539 20.0648 27.7083 20.1802 27.8222C20.2956 27.936 20.4521 28 20.6154 28H24.923C25.7391 28 26.5217 27.6802 27.0987 27.1109C27.6758 26.5416 27.9999 25.7694 27.9999 24.9643V18.8929C28.0039 17.8604 27.8014 16.8373 27.404 15.8822C27.0065 14.9271 26.422 14.0587 25.6838 13.3269ZM15.0769 19.5C15.2401 19.5 15.3966 19.564 15.5121 19.6778C15.6275 19.7917 15.6923 19.9461 15.6923 20.1071V23.1429C15.6923 23.3039 15.6275 23.4583 15.5121 23.5722C15.3966 23.686 15.2401 23.75 15.0769 23.75H13.8461C13.6829 23.75 13.5264 23.686 13.411 23.5722C13.2956 23.4583 13.2308 23.3039 13.2308 23.1429V19.5H15.0769ZM24.923 23.75C24.7598 23.75 24.6033 23.686 24.4879 23.5722C24.3725 23.4583 24.3076 23.3039 24.3076 23.1429V20.1071C24.3076 19.9461 24.3725 19.7917 24.4879 19.6778C24.6033 19.564 24.7598 19.5 24.923 19.5H26.7692V23.75H24.923Z" fill="var(--fill-0, black)" fill-opacity="0.5"/>
</g>
</svg>
