<svg preserveAspectRatio="none" width="100%" height="100%" overflow="visible" style="display: block;" viewBox="0 0 40 40" fill="none" xmlns="http://www.w3.org/2000/svg">
<g id="Group 2">
<circle id="Ellipse 2" cx="20" cy="20" r="19.5" stroke="var(--stroke-0, black)" stroke-opacity="0.2"/>
<path id="Vector" d="M19.75 11C17.8216 11 15.9366 11.5718 14.3332 12.6432C12.7298 13.7145 11.4801 15.2373 10.7422 17.0188C10.0042 18.8004 9.81114 20.7608 10.1873 22.6521C10.5636 24.5434 11.4922 26.2807 12.8557 27.6443C14.2193 29.0079 15.9566 29.9365 17.8479 30.3127C19.7392 30.6889 21.6996 30.4958 23.4812 29.7578C25.2627 29.0199 26.7855 27.7702 27.8568 26.1668C28.9282 24.5634 29.5 22.6784 29.5 20.75C29.497 18.1651 28.4688 15.6868 26.641 13.859C24.8132 12.0312 22.335 11.003 19.75 11ZM28 20.75C28.0007 21.5108 27.8956 22.2681 27.6878 23H24.0775C24.3075 21.5088 24.3075 19.9912 24.0775 18.5H27.6878C27.8956 19.2319 28.0007 19.9892 28 20.75ZM17.3125 24.5H22.1875C21.7072 26.0737 20.8735 27.5167 19.75 28.7188C18.627 27.5164 17.7933 26.0735 17.3125 24.5ZM16.9469 23C16.6894 21.5111 16.6894 19.9889 16.9469 18.5H22.5606C22.8181 19.9889 22.8181 21.5111 22.5606 23H16.9469ZM11.5 20.75C11.4994 19.9892 11.6044 19.2319 11.8122 18.5H15.4225C15.1925 19.9912 15.1925 21.5088 15.4225 23H11.8122C11.6044 22.2681 11.4994 21.5108 11.5 20.75ZM22.1875 17H17.3125C17.7928 15.4263 18.6265 13.9833 19.75 12.7812C20.8731 13.9836 21.7067 15.4265 22.1875 17ZM27.0934 17H23.7541C23.3332 15.4559 22.6238 14.0053 21.6634 12.725C22.8238 13.0037 23.9102 13.5301 24.848 14.268C25.7859 15.0059 26.5532 15.9378 27.0972 17H27.0934ZM17.8366 12.725C16.8762 14.0053 16.1668 15.4559 15.7459 17H12.4028C12.9468 15.9378 13.7141 15.0059 14.652 14.268C15.5899 13.5301 16.6762 13.0037 17.8366 12.725ZM12.4028 24.5H15.7459C16.1668 26.0441 16.8762 27.4947 17.8366 28.775C16.6762 28.4963 15.5899 27.9699 14.652 27.232C13.7141 26.4941 12.9468 25.5622 12.4028 24.5ZM21.6634 28.775C22.6238 27.4947 23.3332 26.0441 23.7541 24.5H27.0972C26.5532 25.5622 25.7859 26.4941 24.848 27.232C23.9102 27.9699 22.8238 28.4963 21.6634 28.775Z" fill="var(--fill-0, black)" fill-opacity="0.5"/>
</g>
</svg>
